# xmcd CD database file
#
# Track frame offsets:
#	150
#	34725
#	72113
#	92061
#	119742
#	162129
#	179698
#	219936
#	245435
#	278910
#
# Disc length: 4093 seconds
#
# Revision: 1
# Processed by: cddbd v1.5.2PL0 Copyright (c) Steve Scherf et al.
# Submitted via: CDex 1.51
#
DISCID=8e0ffb0a
DTITLE=Dean Evenson and Soundings Ensemble - Sound Yoga
DYEAR=2003
DGENRE=New Age
TTITLE0=Living Yantra
TTITLE1=Eastern Sealight
TTITLE2=Sunrise From Ascension To Tibet
TTITLE3=Shaman From Prayer
TTITLE4=Buds On Tree In Spring From Tao Of Peace
TTITLE5=Gentle Awakening From Peace Dance
TTITLE6=Portal Through The Mind From Healing Dream
TTITLE7=Stretching It
TTITLE8=Clouds On Mountain from Tao Of Healing
TTITLE9=Bent On Bliss
EXTD=YEAR: 2003
EXTT0=
EXTT1=
EXTT2=
EXTT3=
EXTT4=
EXTT5=
EXTT6=
EXTT7=
EXTT8=
EXTT9=
PLAYORDER=
